<?xml version="1.0" encoding="utf-8"?>
<!-- Generator: Adobe Illustrator 16.0.0, SVG Export Plug-In . SVG Version: 6.00 Build 0)  -->
<!DOCTYPE svg PUBLIC "-//W3C//DTD SVG 1.1//EN" "http://www.w3.org/Graphics/SVG/1.1/DTD/svg11.dtd">
<svg version="1.1" id="Layer_1" xmlns="http://www.w3.org/2000/svg" xmlns:xlink="http://www.w3.org/1999/xlink" x="0px" y="0px"
	 width="473.667px" height="298.333px" viewBox="0 0 473.667 298.333" enable-background="new 0 0 473.667 298.333"
	 xml:space="preserve">
<g id="Camping_House">
	<g id="Terrace">
		<polyline fill="none" stroke="#1C231F" stroke-width="5" stroke-miterlimit="10" points="215.5,295.833 2.5,295.833 2.5,220.5 		
			"/>
		<polyline fill="none" stroke="#1C231F" stroke-width="5" stroke-miterlimit="10" points="471.167,220.5 471.167,295.833 
			285.25,295.833 		"/>
	</g>
	<polyline id="House" fill="none" stroke="#1C231F" stroke-width="5" stroke-miterlimit="10" points="215.833,219.167 2.5,219.167 
		2.5,2.5 471.167,2.5 471.167,219.167 285.25,219.167 	"/>
	
		<rect id="Bathroom" x="2.5" y="2.5" fill="none" stroke="#1C231F" stroke-width="3" stroke-miterlimit="10" width="148.001" height="100"/>
	
		<rect id="Master_bedroom" x="2.5" y="102.5" fill="none" stroke="#1C231F" stroke-width="3" stroke-miterlimit="10" width="148.001" height="116.666"/>
	<g id="Kitchen">
		<rect id="Counter" x="320.833" y="4.242" fill="none" stroke="#1C231F" stroke-miterlimit="10" width="106.999" height="42.331"/>
		<g id="Fridge">
			<rect x="280.166" y="4.242" fill="none" stroke="#1C231F" stroke-miterlimit="10" width="40.666" height="42.331"/>
			<line fill="none" stroke="#1C231F" stroke-miterlimit="10" x1="280.166" y1="39.906" x2="320.833" y2="39.906"/>
			
				<line fill="none" stroke="#1C231F" stroke-width="2" stroke-miterlimit="10" x1="285.832" y1="47.573" x2="292.832" y2="47.573"/>
		</g>
		<g id="Sink">
			<g>
				<path fill="none" stroke="#1C231F" stroke-miterlimit="10" d="M366.167,34.906c0,2.75-2.25,5-5,5h-27.334c-2.75,0-5-2.25-5-5
					V18.573c0-2.75,2.25-5,5-5h27.334c2.75,0,5,2.25,5,5V34.906z"/>
			</g>
			<rect x="345.968" y="11.741" fill="#1C231F" width="3.063" height="9.832"/>
			<circle fill="#1C231F" cx="347.5" cy="26.739" r="2.021"/>
			<rect x="342.333" y="13.573" fill="#1C231F" width="3" height="1.667"/>
			<rect x="349.52" y="13.573" fill="#1C231F" width="3" height="1.667"/>
		</g>
		<g id="Cabin">
			<rect x="427.832" y="4.242" fill="none" stroke="#1C231F" stroke-miterlimit="10" width="40.667" height="42.331"/>
			<line fill="none" stroke="#1C231F" stroke-miterlimit="10" x1="427.832" y1="43.576" x2="468.499" y2="43.576"/>
			<line fill="none" stroke="#1C231F" stroke-miterlimit="10" x1="433.832" y1="47.573" x2="442.332" y2="47.573"/>
			<line fill="none" stroke="#1C231F" stroke-miterlimit="10" x1="453.999" y1="47.573" x2="462.499" y2="47.573"/>
			<line fill="none" stroke="#1C231F" stroke-miterlimit="10" x1="448.166" y1="46.573" x2="448.166" y2="43.576"/>
		</g>
		<g id="Gas_stove">
			<rect x="383.333" y="14.406" fill="none" stroke="#1C231F" stroke-miterlimit="10" width="31.25" height="24.666"/>
			<circle fill="#1C231F" cx="392.458" cy="21.547" r="3.25"/>
			<circle fill="#1C231F" cx="405.458" cy="21.495" r="3.25"/>
			<circle fill="#1C231F" cx="392.458" cy="31.983" r="3.25"/>
			<circle fill="#1C231F" cx="405.458" cy="31.932" r="3.25"/>
		</g>
	</g>
	<g id="Living_room">
		<g id="Couch_1">
			<rect x="433.832" y="94.173" fill="none" stroke="#1C231F" stroke-miterlimit="10" width="32.334" height="74.333"/>
			<polyline fill="none" stroke="#1C231F" stroke-miterlimit="10" points="433.832,94.173 433.832,91.173 466.166,91.173 
				466.166,94.173 			"/>
			<polyline fill="none" stroke="#1C231F" stroke-miterlimit="10" points="466.166,168.506 466.166,171.506 433.832,171.506 
				433.832,168.506 			"/>
			<rect x="444.499" y="94.173" fill="none" stroke="#1C231F" stroke-miterlimit="10" width="21.667" height="74.333"/>
			<line fill="none" stroke="#1C231F" stroke-miterlimit="10" x1="444.499" y1="119.173" x2="466.166" y2="119.173"/>
			<line fill="none" stroke="#1C231F" stroke-miterlimit="10" x1="444.499" y1="143.506" x2="466.166" y2="143.506"/>
		</g>
		<g id="Couch_2">
			<rect x="337.502" y="179.498" fill="none" stroke="#1C231F" stroke-miterlimit="10" width="86.825" height="32.334"/>
			<polyline fill="none" stroke="#1C231F" stroke-miterlimit="10" points="424.328,179.498 427.832,179.498 427.832,211.832 
				424.328,211.832 			"/>
			<polyline fill="none" stroke="#1C231F" stroke-miterlimit="10" points="337.502,211.832 333.999,211.832 333.999,179.498 
				337.502,179.498 			"/>
			<rect x="337.502" y="190.165" fill="none" stroke="#1C231F" stroke-miterlimit="10" width="86.825" height="21.667"/>
			<line fill="none" stroke="#1C231F" stroke-miterlimit="10" x1="395.126" y1="190.165" x2="395.126" y2="211.832"/>
			<line fill="none" stroke="#1C231F" stroke-miterlimit="10" x1="366.705" y1="190.165" x2="366.705" y2="211.832"/>
		</g>
		<rect id="Table" x="350.06" y="101.403" fill="none" stroke="#1C231F" stroke-miterlimit="10" width="61.71" height="59.874"/>
	</g>
</g>
</svg>
